<?xml version="1.0" encoding="iso-8859-1"?>
<!-- Generator: Adobe Illustrator 19.0.0, SVG Export Plug-In . SVG Version: 6.00 Build 0)  -->
<svg version="1.1" id="Capa_1" xmlns="http://www.w3.org/2000/svg" xmlns:xlink="http://www.w3.org/1999/xlink" x="0px" y="0px"
	 viewBox="0 0 512 512" style="enable-background:new 0 0 512 512;" xml:space="preserve">
<path style="fill:#415265;" d="M92.721,330.571l-18.8-32.562c-5.057-8.759-5.073-19.547-0.041-28.32l18.557-32.36
	c5.051-8.807,14.419-14.247,24.572-14.267l54.235-0.109l35.164,60.906l-35.164,60.906h-53.936
	C107.166,344.767,97.793,339.356,92.721,330.571z"/>
<path style="fill:#768795;" d="M133.951,344.767l-26.996-46.757c-5.057-8.759-5.073-19.547-0.041-28.32l18.557-32.36
	c5.051-8.807,14.419-14.247,24.572-14.267l37.806-0.076c10.163-0.021,19.563,5.394,24.644,14.195l26.95,46.678l-26.969,46.711
	c-5.072,8.784-14.444,14.195-24.587,14.195h-53.936V344.767z"/>
<circle style="fill:#405364;" cx="168.493" cy="283.873" r="25.186"/>
<path style="fill:#DCF1F9;" d="M330.855,269.56H171.687c-7.885,0-14.3,6.415-14.3,14.3c0,7.886,6.415,14.3,14.3,14.3h159.169V269.56
	z"/>
<path style="fill:#B6E2F9;" d="M159.322,276.711c-1.223,2.106-1.935,4.544-1.935,7.151c0,7.886,6.415,14.3,14.3,14.3h159.169v-14.3
	h-159.17C166.408,283.861,161.798,280.978,159.322,276.711z"/>
<path style="fill:#323E4A;" d="M300.214,330.571l-18.8-32.562c-5.057-8.759-5.073-19.547-0.041-28.32l18.558-32.36
	c5.05-8.807,14.419-14.247,24.572-14.267l54.235-0.109l35.164,60.906l-35.164,60.906h-53.936
	C314.659,344.767,305.285,339.356,300.214,330.571z"/>
<path style="fill:#405364;" d="M342.476,344.767L315.48,298.01c-5.057-8.759-5.073-19.547-0.041-28.32l26.72-46.593l54.214-0.109
	c10.163-0.021,19.563,5.394,24.644,14.195l18.754,32.482c5.072,8.784,5.072,19.608,0,28.391l-18.772,32.514
	c-5.072,8.784-14.444,14.195-24.587,14.195h-53.936V344.767z"/>
<path style="fill:#687885;" d="M377.639,304.648c-11.463,0-20.787-9.325-20.787-20.787c0-11.463,9.325-20.787,20.787-20.787
	s20.787,9.325,20.787,20.787C398.427,295.323,389.102,304.648,377.639,304.648z"/>
<path style="fill:#415265;" d="M48.286,140.605L19.963,91.55c-5.057-8.759-5.073-19.546-0.041-28.319l27.994-48.815
	c5.05-8.808,14.419-14.247,24.572-14.267L145.855,0l44.688,77.401l-44.687,77.4H72.873C62.731,154.801,53.357,149.39,48.286,140.605
	z"/>
<path style="fill:#768795;" d="M101.903,154.801L65.385,91.55c-5.057-8.759-5.073-19.546-0.041-28.319L101.5,0.181l73.347-0.148
	c10.163-0.021,19.563,5.394,24.644,14.195L235.964,77.4l-36.492,63.205c-5.072,8.784-14.444,14.195-24.587,14.195h-72.982V154.801z"
	/>
<circle style="fill:#405364;" cx="143.315" cy="79.694" r="31.041"/>
<path style="fill:#DCF1F9;" d="M342.211,59.336H148.654c-9.961,0-18.065,8.105-18.065,18.065s8.105,18.065,18.065,18.065h193.557
	V59.336z"/>
<path style="fill:#B6E2F9;" d="M133.033,68.368c-1.544,2.661-2.444,5.741-2.444,9.033c0,9.961,8.105,18.065,18.065,18.065h193.557
	V77.401H148.654C141.985,77.401,136.163,73.758,133.033,68.368z"/>
<path style="fill:#323E4A;" d="M312.555,140.605l-28.322-49.056c-5.057-8.759-5.073-19.546-0.041-28.319l27.994-48.815
	c5.05-8.807,14.419-14.247,24.572-14.267L410.124,0l44.688,77.401l-44.687,77.4h-72.983C327,154.801,317.626,149.39,312.555,140.605
	z"/>
<path style="fill:#405364;" d="M366.173,154.801L329.654,91.55c-5.057-8.759-5.073-19.546-0.041-28.319l36.156-63.049l73.347-0.148
	c10.163-0.021,19.563,5.394,24.644,14.195l28.277,48.977c5.072,8.784,5.072,19.608,0,28.391l-28.295,49.009
	c-5.072,8.784-14.444,14.195-24.587,14.195H366.173z"/>
<path style="fill:#687885;" d="M410.859,103.725c-14.515,0-26.324-11.809-26.324-26.324s11.809-26.324,26.324-26.324
	s26.324,11.808,26.324,26.324S425.374,103.725,410.859,103.725z"/>
<path style="fill:#415265;" d="M127.121,497.804l-11.052-19.142c-5.057-8.759-5.073-19.547-0.041-28.32l10.879-18.971
	c5.05-8.807,14.419-14.247,24.572-14.267l38.67-0.077l27.417,47.486l-27.416,47.486H151.71
	C141.565,512,132.193,506.589,127.121,497.804z"/>
<path style="fill:#768795;" d="M152.929,497.804l-11.052-19.142c-5.057-8.759-5.073-19.547-0.041-28.32l10.879-18.971
	c5.05-8.807,14.419-14.247,24.572-14.267l29.566-0.06c5.631-0.011,10.84,2.989,13.655,7.866l22.864,39.602l-22.875,39.62
	c-2.81,4.867-8.003,7.866-13.624,7.866h-29.358C167.373,512,158.001,506.589,152.929,497.804z"/>
<circle style="fill:#405364;" cx="190.718" cy="464.515" r="20.325"/>
<path style="fill:#DCF1F9;" d="M190.426,475.751c-6.196,0-11.238-5.041-11.238-11.238s5.041-11.238,11.238-11.238h97.073v22.474
	h-97.073V475.751z"/>
<path style="fill:#B6E2F9;" d="M180.709,458.895c-0.961,1.655-1.521,3.571-1.521,5.619c0,6.196,5.041,11.238,11.238,11.238h97.073
	v-11.238h-97.072C186.278,464.514,182.656,462.248,180.709,458.895z"/>
<path style="fill:#323E4A;" d="M289.193,497.804l-11.052-19.142c-5.057-8.759-5.073-19.547-0.041-28.32l10.879-18.971
	c5.05-8.807,14.419-14.247,24.572-14.267l38.67-0.077l27.417,47.486l-27.416,47.486h-38.441
	C303.637,512,294.264,506.589,289.193,497.804z"/>
<path style="fill:#405364;" d="M323.196,512l-19.247-33.337c-5.057-8.759-5.073-19.547-0.041-28.32l19.042-33.205l38.648-0.077
	c10.164-0.021,19.563,5.394,24.644,14.195l11.005,19.063c5.072,8.784,5.072,19.607,0,28.391l-11.024,19.094
	c-5.072,8.784-14.444,14.195-24.587,14.195h-38.44V512z"/>
<path style="fill:#687885;" d="M350.612,480.796c-8.978,0-16.283-7.305-16.283-16.283c0-8.978,7.305-16.283,16.283-16.283
	c8.978,0,16.283,7.305,16.283,16.283C366.894,473.491,359.59,480.796,350.612,480.796z"/>
<g>
</g>
<g>
</g>
<g>
</g>
<g>
</g>
<g>
</g>
<g>
</g>
<g>
</g>
<g>
</g>
<g>
</g>
<g>
</g>
<g>
</g>
<g>
</g>
<g>
</g>
<g>
</g>
<g>
</g>
</svg>
